<?xml version="1.0" encoding="UTF-8"?>
<svg xmlns="http://www.w3.org/2000/svg" version="1.1" viewBox="0 0 663.3 601.8">
  <defs>
    <style>
      .cls-1 {
        fill: #5b7cea;
      }

      .cls-2 {
        fill: none;
        stroke: #5b7cea;
        stroke-width: 2px;
      }

      .cls-3 {
        fill: #5676de;
      }
    </style>
  </defs>
  <!-- Generator: Adobe Illustrator 28.7.4, SVG Export Plug-In . SVG Version: 1.2.0 Build 166)  -->
  <g>
    <g id="Camada_1">
      <g id="Camada_1-2" data-name="Camada_1">
        <path class="cls-1" d="M378.7,132.6C245-60.1,115,37.5,53,121.8c-81,110.2-26.1,322.9,102.2,412.5,117.7,87,243.2,51.2,249.7,50,42.4-7.8,162.3-42.5,213-128.5,53.2-90.3,24.1-169.8-31.6-179.4-88.9-15.4-149.8-60.2-207.7-143.7h0Z"/>
        <path class="cls-2" d="M381.3,118.7C240.8-84,103,17.9,39.1,107.3c-83.1,116.3-22.7,344.3,107.4,433.8,130.1,89.6,262.8,51.6,262.8,51.6,44.5-8.2,170.2-43.7,223.5-134.1,55.9-95,25.3-178.6-33.2-188.7-93.4-16.2-157.4-63.4-218.3-151.2h0Z"/>
        <g>
          <path class="cls-3" d="M304.1,526.1c-14.7,13.8-38.6,1.4-56.2,12.7-17.9,9.8-40.2,6.3-40.2-17.6,5.4-20,21.8-35.1,28.7-54.9,18.3-22.6,36.2,11.1,52.3,19.2,16,8.1,28.9,24.1,15.3,40.6h.1Z"/>
          <path class="cls-3" d="M317.1,455.8c-1.1,9.4-6.9,16.5-14.6,16-54.3-3.4,19.9-91.2,14.6-16Z"/>
          <path class="cls-3" d="M282.3,427.3c1.4,12.8-4.7,25.6-17.2,24.7-47.8-3.7,6.5-91.5,17.2-24.7Z"/>
          <path class="cls-3" d="M208.2,461.8c7.1,9.5,9.7,18.7.4,26.1-43.6,22.1-42.9-75.4-.4-26.1Z"/>
          <path class="cls-3" d="M238.1,432.4c4,11.6,1.8,24.6-11.7,27.2-45.1,8.7-11-91.8,11.7-27.2Z"/>
        </g>
        <g>
          <path class="cls-3" d="M162.8,384.5c-14.7,13.8-38.6,1.4-56.2,12.7-17.9,9.8-40.2,6.3-40.2-17.6,5.4-20,21.8-35.1,28.7-54.9,18.3-22.6,36.2,11.1,52.3,19.2,16,8.1,28.9,24.1,15.3,40.6h.1Z"/>
          <path class="cls-3" d="M175.8,314.2c-1.1,9.4-6.9,16.5-14.6,16-54.3-3.4,19.9-91.2,14.6-16Z"/>
          <path class="cls-3" d="M141,285.7c1.4,12.8-4.7,25.6-17.2,24.7-47.8-3.7,6.5-91.5,17.2-24.7Z"/>
          <path class="cls-3" d="M66.9,320.2c7.1,9.5,9.7,18.7.4,26.1-43.6,22.1-42.9-75.4-.4-26.1Z"/>
          <path class="cls-3" d="M96.8,290.8c4,11.6,1.8,24.6-11.7,27.2-45.1,8.7-11-91.8,11.7-27.2Z"/>
        </g>
        <g>
          <path class="cls-3" d="M336,350.3c-9.2-17.9,9.3-37.5,3.4-57.5-4.5-19.9,5.2-40.4,28.1-33.7,17.7,10.7,27.7,30.7,44.8,42.8,16.6,23.9-20.7,31.7-33,44.9-12.2,13.1-31.2,21.1-43.3,3.4h0Z"/>
          <path class="cls-3" d="M400,382.3c-8.8-3.7-13.9-11.3-11.4-18.5,18.3-51.2,82.1,44.5,11.4,18.5Z"/>
          <path class="cls-3" d="M437,356.7c-12.7-2.2-23.3-11.6-18.9-23.3,16.8-44.9,86.1,31.7,18.9,23.3Z"/>
          <path class="cls-3" d="M424.4,276c-11.1,4.2-20.7,4.1-25.2-6.9-9.1-48,84.4-20.3,25.2,6.9Z"/>
          <path class="cls-3" d="M444.3,312.9c-12.3.6-24.1-5.1-22.8-18.8,4.2-45.7,91.2,14.9,22.8,18.8Z"/>
        </g>
        <g>
          <path class="cls-3" d="M393.3,573.6c-11.4-6.1-8-24.2-19.1-31.6-13.9-9.3-7.5-26.5,2.6-28s26.3,3.7,30.6,5.9c16.6,8.5,10.9,28.2,7.6,36.2s-8.8,22.5-21.6,17.6h0Z"/>
          <path class="cls-3" d="M435.8,568.9c-5.6,1.1-10.7-.8-11.9-5.3-8.4-31.5,55.6-6,11.9,5.3Z"/>
          <path class="cls-3" d="M445.4,542.2c-6.8,3.1-15,2.1-16.7-4.9-6.7-27,51.6-13.2,16.7,4.9Z"/>
          <path class="cls-3" d="M409.4,504.4c-4,5.7-8.6,8.9-14.5,5.1-20.5-20.2,34.1-38,14.5-5.1Z"/>
          <path class="cls-3" d="M433.5,516.3c-5.8,4.4-13.5,5.6-17.6-1.5-13.4-23.8,49.8-23.5,17.6,1.5Z"/>
        </g>
        <g>
          <path class="cls-3" d="M483.7,478.6c-11.4-6.1-8-24.2-19.1-31.6-13.9-9.3-7.5-26.5,2.6-28s26.3,3.7,30.6,5.9c16.6,8.5,10.9,28.2,7.6,36.2s-8.8,22.5-21.6,17.6h0Z"/>
          <path class="cls-3" d="M526.2,473.9c-5.6,1.1-10.7-.8-11.9-5.3-8.4-31.5,55.6-6,11.9,5.3Z"/>
          <path class="cls-3" d="M535.7,447.2c-6.8,3.1-15,2.1-16.7-4.9-6.7-27,51.6-13.2,16.7,4.9Z"/>
          <path class="cls-3" d="M499.7,409.4c-4,5.7-8.6,8.9-14.5,5.1-20.5-20.2,34.1-38,14.5-5.1Z"/>
          <path class="cls-3" d="M523.8,421.3c-5.8,4.4-13.5,5.6-17.6-1.5-13.4-23.8,49.8-23.5,17.6,1.5Z"/>
        </g>
        <g>
          <path class="cls-3" d="M599.4,377.4c-10.9,6.9-25-4.9-36.9,1.1-14.9,7.6-26.8-6.5-23.1-16,3.7-9.5,16.2-21.1,20.2-23.7,15.5-10.3,29.9,4.3,35.2,11.2,5.3,6.8,15.2,18.7,4.7,27.5h0Z"/>
          <path class="cls-3" d="M616.2,338.1c-1.7,5.4-6,8.9-10.4,7.8-31.5-8.2,22.1-51.3,10.4-7.8Z"/>
          <path class="cls-3" d="M597.6,316.7c-.6,7.4-5.5,14.1-12.5,12.2-26.8-7.4,13.8-51.4,12.5-12.2Z"/>
          <path class="cls-3" d="M547,329.5c3,6.3,3.5,11.9-2.7,15.1-27.7,7.9-16.3-48.4,2.7-15.1Z"/>
          <path class="cls-3" d="M569.2,314.3c1,7.2-1.8,14.6-9.9,14.6-27.4,0,4-54.9,9.9-14.6Z"/>
        </g>
        <g>
          <path class="cls-3" d="M264.9,238c12.9.9,17.2,18.8,30.4,21,16.5,2.8,17.7,21.1,9.1,26.6s-25.6,7.4-30.3,7.1c-18.6-.9-21.5-21.2-21.7-29.9s-1.2-24.1,12.5-24.9h0Z"/>
          <path class="cls-3" d="M228,259.7c4.6-3.3,10.1-3.6,13,0,20.5,25.3-48.3,28.2-13,0Z"/>
          <path class="cls-3" d="M230.2,288c4.9-5.6,12.8-8.1,17.3-2.4,17.2,21.9-41.7,33.1-17.3,2.4Z"/>
          <path class="cls-3" d="M278.5,307.8c1.3-6.9,4.2-11.7,11.2-10.6,26.9,10.1-15.6,48.6-11.2,10.6Z"/>
          <path class="cls-3" d="M251.7,306.8c3.5-6.4,10.1-10.7,16.6-5.8,22,16.3-35.8,41.8-16.6,5.8Z"/>
        </g>
        <g>
          <path class="cls-3" d="M310.8,107c12.9.9,17.2,18.8,30.4,21,16.5,2.8,17.7,21.1,9.1,26.6s-25.6,7.4-30.3,7.1c-18.6-.9-21.5-21.2-21.7-29.9-.2-8.7-1.2-24.1,12.5-24.9h0Z"/>
          <path class="cls-3" d="M273.9,128.6c4.6-3.3,10.1-3.6,13,0,20.5,25.3-48.3,28.2-13,0Z"/>
          <path class="cls-3" d="M276.1,156.9c4.9-5.6,12.8-8.1,17.3-2.4,17.2,21.9-41.7,33.1-17.3,2.4Z"/>
          <path class="cls-3" d="M324.5,176.7c1.3-6.9,4.2-11.7,11.2-10.6,26.9,10.1-15.6,48.6-11.2,10.6Z"/>
          <path class="cls-3" d="M297.6,175.7c3.5-6.4,10.1-10.7,16.6-5.8,22,16.3-35.8,41.8-16.6,5.8Z"/>
        </g>
        <g>
          <path class="cls-3" d="M117.9,196.6c-16.4-11.7-9-37.6-23.4-52.6-13.2-15.6-14-38.2,9.4-42.8,20.7,1.4,38.7,14.5,59.5,17.4,25.7,13.5-3.8,37.7-8.6,55.1-4.8,17.2-18,33.1-36.8,23h-.1Z"/>
          <path class="cls-3" d="M189.4,195.6c-9.5.7-17.6-3.6-18.6-11.2-7.3-53.9,93.4,1.7,18.6,11.2Z"/>
          <path class="cls-3" d="M210.5,155.9c-12.3,3.9-26.1.4-27.6-12-5.7-47.6,91-11.5,27.6,12Z"/>
          <path class="cls-3" d="M162.2,90c-8,8.8-16.5,13.2-25.5,5.5-30.2-38.4,65.6-56.8,25.5-5.5Z"/>
          <path class="cls-3" d="M196.8,113.6c-10.6,6.2-23.7,6.5-28.9-6.2-17.4-42.5,87.8-28.7,28.9,6.2Z"/>
        </g>
      </g>
    </g>
  </g>
</svg>