<svg width="25" height="28" viewBox="0 0 25 28" fill="none" xmlns="http://www.w3.org/2000/svg">
<path d="M17.8571 2.625V4.375H24.1071C24.3439 4.375 24.571 4.46719 24.7385 4.63128C24.9059 4.79538 25 5.01794 25 5.25C25 5.48206 24.9059 5.70462 24.7385 5.86872C24.571 6.03281 24.3439 6.125 24.1071 6.125H23.1464L21.6232 24.78C21.5514 25.6571 21.1451 26.4755 20.4852 27.0722C19.8254 27.6689 18.9604 28.0002 18.0625 28H6.9375C6.03963 28.0002 5.17463 27.6689 4.51478 27.0722C3.85492 26.4755 3.44862 25.6571 3.37679 24.78L1.85357 6.125H0.892857C0.656057 6.125 0.428955 6.03281 0.261512 5.86872C0.0940686 5.70462 0 5.48206 0 5.25C0 5.01794 0.0940686 4.79538 0.261512 4.63128C0.428955 4.46719 0.656057 4.375 0.892857 4.375H7.14286V2.625C7.14286 1.92881 7.42506 1.26113 7.92739 0.768845C8.42972 0.276562 9.11103 0 9.82143 0L15.1786 0C15.889 0 16.5703 0.276562 17.0726 0.768845C17.5749 1.26113 17.8571 1.92881 17.8571 2.625ZM8.92857 2.625V4.375H16.0714V2.625C16.0714 2.39294 15.9774 2.17038 15.8099 2.00628C15.6425 1.84219 15.4154 1.75 15.1786 1.75H9.82143C9.58463 1.75 9.35753 1.84219 9.19008 2.00628C9.02264 2.17038 8.92857 2.39294 8.92857 2.625ZM6.25 8.80075L7.14286 23.6758C7.14762 23.792 7.17601 23.9062 7.22635 24.0116C7.2767 24.117 7.34799 24.2115 7.43606 24.2896C7.52412 24.3676 7.62719 24.4277 7.73924 24.4662C7.85128 24.5048 7.97004 24.521 8.08858 24.5141C8.20711 24.5071 8.32303 24.477 8.42955 24.4256C8.53608 24.3741 8.63106 24.3024 8.70895 24.2146C8.78684 24.1267 8.84607 24.0245 8.88316 23.914C8.92026 23.8034 8.93448 23.6868 8.925 23.5707L8.03214 8.69575C8.02738 8.57947 7.99899 8.46529 7.94865 8.3599C7.8983 8.2545 7.82701 8.16001 7.73894 8.08194C7.65088 8.00388 7.54781 7.94382 7.43576 7.90527C7.32372 7.86672 7.20496 7.85046 7.08642 7.85745C6.96789 7.86443 6.85197 7.89452 6.74545 7.94594C6.63892 7.99737 6.54394 8.0691 6.46605 8.15694C6.38816 8.24478 6.32893 8.34697 6.29184 8.45751C6.25474 8.56806 6.24052 8.68475 6.25 8.80075ZM17.9107 7.87675C17.6744 7.86336 17.4423 7.94249 17.2655 8.09672C17.0887 8.25095 16.9817 8.46768 16.9679 8.69925L16.075 23.5742C16.0673 23.8024 16.1509 24.0244 16.308 24.193C16.465 24.3616 16.6831 24.4633 16.9156 24.4766C17.1481 24.4898 17.3767 24.4135 17.5526 24.2639C17.7285 24.1143 17.8378 23.9032 17.8571 23.6758L18.75 8.80075C18.7637 8.56917 18.6829 8.34175 18.5255 8.16848C18.3682 7.99521 18.147 7.89028 17.9107 7.87675ZM12.5 7.875C12.2632 7.875 12.0361 7.96719 11.8687 8.13128C11.7012 8.29538 11.6071 8.51794 11.6071 8.75V23.625C11.6071 23.8571 11.7012 24.0796 11.8687 24.2437C12.0361 24.4078 12.2632 24.5 12.5 24.5C12.7368 24.5 12.9639 24.4078 13.1313 24.2437C13.2988 24.0796 13.3929 23.8571 13.3929 23.625V8.75C13.3929 8.51794 13.2988 8.29538 13.1313 8.13128C12.9639 7.96719 12.7368 7.875 12.5 7.875Z" fill="#FA484B"/>
</svg>
