<svg width="28" height="28" viewBox="0 0 28 28" fill="none" xmlns="http://www.w3.org/2000/svg">
<path d="M13.1395 2.34387H3.69767C2.98221 2.34387 2.29604 2.62809 1.79013 3.134C1.28422 3.63991 1 4.32608 1 5.04155V23.9253C1 24.6407 1.28422 25.3269 1.79013 25.8328C2.29604 26.3387 2.98221 26.6229 3.69767 26.6229H22.5814C23.2969 26.6229 23.983 26.3387 24.4889 25.8328C24.9949 25.3269 25.2791 24.6407 25.2791 23.9253V14.4834" stroke="#4B9DFA" stroke-width="2" stroke-linecap="round" stroke-linejoin="round"/>
<path d="M21.7384 1.83806C22.275 1.30146 23.0027 1 23.7616 1C24.5205 1 25.2483 1.30146 25.7849 1.83806C26.3215 2.37466 26.6229 3.10245 26.6229 3.86132C26.6229 4.62018 26.3215 5.34797 25.7849 5.88457L13.6278 18.043C13.3075 18.363 12.9118 18.5972 12.4772 18.7242L8.60202 19.8572C8.48596 19.891 8.36293 19.8931 8.24581 19.8631C8.12869 19.833 8.02179 19.7721 7.9363 19.6866C7.85081 19.6011 7.78988 19.4942 7.75987 19.3771C7.72986 19.26 7.73189 19.137 7.76575 19.0209L8.89877 15.1457C9.02627 14.7114 9.26098 14.3162 9.58128 13.9965L21.7384 1.83806Z" fill="#4B9DFA" stroke="#4B9DFA" stroke-width="2" stroke-linecap="round" stroke-linejoin="round"/>
</svg>
