<svg width="52" height="52" viewBox="0 0 52 52" fill="none" xmlns="http://www.w3.org/2000/svg">
<path d="M20.07 9.90167C20.7886 7.79883 22.6539 2.76521 24.5 2.8008C26.1747 2.83309 27.8336 7.74525 28.6065 9.53729L28.744 9.90396L30.5934 15.3123C31.0172 16.5526 31.7021 17.6876 32.6018 18.6408C33.5016 19.5939 34.5953 20.343 35.8092 20.8375L36.3065 21.0231L41.7148 22.8702C43.9382 23.63 48.9663 25.6717 48.7994 27.6173C48.6653 29.1811 43.7592 30.6827 42.0815 31.4067L41.7148 31.5442L36.3065 33.3935C35.0657 33.8171 33.9303 34.5019 32.9767 35.4016C32.0232 36.3014 31.2738 37.3953 30.779 38.6094L30.5934 39.1044L28.7463 44.515C28.0515 46.5482 26.2847 51.5818 24.5 51.6162C22.7645 51.6496 21.012 46.738 20.2121 44.8817L20.07 44.515L18.2229 39.1067C17.7994 37.8659 17.1146 36.7305 16.2149 35.7769C15.3151 34.8234 14.2212 34.0739 13.0071 33.5792L12.5121 33.3935L7.10378 31.5465C5.19007 30.8929 0.161409 29.2907 0.0175427 27.6173C-0.140253 25.782 4.76638 23.861 6.73711 23.0123L7.10378 22.8702L12.5121 21.0231C13.7524 20.5993 14.8875 19.9144 15.8406 19.0146C16.7937 18.1149 17.5428 17.0212 18.0373 15.8073L18.2229 15.3123L20.07 9.90167ZM42.7415 9.67346e-08C43.7458 -2.13997e-06 44.5377 2.64542 44.9094 3.55146L45.7115 5.90271L48.065 6.70479C48.9243 6.99673 51.5569 7.8227 51.6148 8.72838C51.6727 9.63406 49.1505 10.5339 48.3354 10.9329L48.065 11.0429L45.7138 11.845L44.9117 14.1985C44.6192 15.0576 43.793 17.6896 42.8873 17.7471C41.8308 17.8141 40.9592 15.1386 40.5736 14.1985L39.7715 11.8473L37.4179 11.0452C36.5587 10.7533 33.9261 9.9273 33.8681 9.02162C33.8102 8.11594 36.3324 7.21611 37.1475 6.81708L37.4179 6.70708L39.7692 5.905L40.5713 3.55146C40.8846 2.63349 41.7715 -0.000582823 42.7415 9.67346e-08Z" fill="#FFE2D2"/>
</svg>
