<svg width="16" height="16" viewBox="0 0 16 16" fill="none" xmlns="http://www.w3.org/2000/svg">
<path d="M6.22954 3.2553C6.44192 2.63396 6.99321 1.14664 7.53885 1.15716C8.03382 1.1667 8.52414 2.61813 8.75256 3.14763L8.7932 3.25597L9.3398 4.85401C9.46506 5.22049 9.66749 5.55586 9.93342 5.83749C10.1994 6.11912 10.5226 6.34046 10.8814 6.48657L11.0284 6.54142L12.6268 7.08719C13.284 7.31168 14.7701 7.91497 14.7207 8.48985C14.6811 8.95189 13.2311 9.39559 12.7352 9.60951L12.6268 9.65014L11.0284 10.1966C10.6616 10.3217 10.326 10.5241 10.0442 10.7899C9.76239 11.0558 9.54089 11.379 9.39466 11.7377L9.3398 11.884L8.79387 13.4827C8.58853 14.0835 8.06633 15.5708 7.53885 15.5809C7.0259 15.5908 6.50795 14.1395 6.27153 13.591L6.22954 13.4827L5.68362 11.8847C5.55843 11.5181 5.35604 11.1826 5.09011 10.9008C4.82417 10.6191 4.50087 10.3976 4.14203 10.2514L3.99573 10.1966L2.39725 9.65081C1.83164 9.4577 0.345378 8.98429 0.302857 8.48985C0.256219 7.94754 1.70642 7.37994 2.28888 7.12917L2.39725 7.08719L3.99573 6.54142C4.36232 6.41619 4.69778 6.21382 4.97949 5.94796C5.2612 5.6821 5.48259 5.35894 5.62875 5.00027L5.68362 4.85401L6.22954 3.2553ZM12.9303 0.32959C13.2271 0.329589 13.4612 1.11125 13.571 1.37896L13.8081 2.0737L14.5037 2.3107C14.7577 2.39696 15.5357 2.64101 15.5529 2.90862C15.57 3.17622 14.8245 3.4421 14.5836 3.56L14.5037 3.59251L13.8088 3.8295L13.5717 4.52492C13.4853 4.77875 13.241 5.55646 12.9734 5.57342C12.6611 5.59322 12.4035 4.80268 12.2895 4.52492L12.0525 3.83018L11.3569 3.59318C11.1029 3.50692 10.3248 3.26287 10.3077 2.99526C10.2906 2.72766 11.036 2.46178 11.2769 2.34387L11.3569 2.31137L12.0518 2.07438L12.2888 1.37896C12.3814 1.10772 12.6436 0.329418 12.9303 0.32959Z" fill="white"/>
</svg>
