<svg width="167" height="61" viewBox="0 0 167 61" fill="none" xmlns="http://www.w3.org/2000/svg">
<path d="M2.32758 19.95H17.0276V24.01H7.64758V28.525H16.1176V32.55H7.64758V37.94H17.1326V42H2.32758V19.95ZM25.5479 42H20.3679V25.2H24.3929L24.9879 27.3C25.7346 26.53 26.5512 25.9233 27.4379 25.48C28.3246 25.0367 29.3162 24.815 30.4129 24.815C32.8162 24.815 34.4612 25.6667 35.3479 27.37C36.0946 26.6 36.9346 25.9817 37.8679 25.515C38.8246 25.0483 39.8396 24.815 40.9129 24.815C42.7096 24.815 44.0979 25.305 45.0779 26.285C46.0579 27.2417 46.5479 28.6533 46.5479 30.52V42H41.3679V31.045C41.3679 30.345 41.1812 29.785 40.8079 29.365C40.4346 28.945 39.9329 28.735 39.3029 28.735C38.7429 28.735 38.1596 28.875 37.5529 29.155C36.9462 29.435 36.4446 29.8433 36.0479 30.38V42H30.8679V31.045C30.8679 30.345 30.6812 29.785 30.3079 29.365C29.9346 28.945 29.4329 28.735 28.8029 28.735C28.2429 28.735 27.6596 28.8983 27.0529 29.225C26.4462 29.5517 25.9446 29.9833 25.5479 30.52V42ZM67.2419 33.495C67.2419 34.8717 67.0086 36.1083 66.5419 37.205C66.0986 38.3017 65.4802 39.235 64.6869 40.005C63.8936 40.775 62.9602 41.37 61.8869 41.79C60.8136 42.1867 59.6586 42.385 58.4219 42.385C57.1852 42.385 56.0302 42.1983 54.9569 41.825C53.9069 41.4283 52.9969 40.8683 52.2269 40.145C51.4569 39.4217 50.8502 38.535 50.4069 37.485C49.9636 36.4117 49.7419 35.1983 49.7419 33.845C49.7419 32.4217 49.9636 31.15 50.4069 30.03C50.8736 28.91 51.5036 27.965 52.2969 27.195C53.0902 26.425 54.0236 25.8417 55.0969 25.445C56.1702 25.025 57.3252 24.815 58.5619 24.815C59.7986 24.815 60.9419 25.0017 61.9919 25.375C63.0652 25.7483 63.9869 26.3083 64.7569 27.055C65.5269 27.7783 66.1336 28.6767 66.5769 29.75C67.0202 30.8233 67.2419 32.0717 67.2419 33.495ZM61.9219 33.67C61.9219 32.76 61.8286 31.99 61.6419 31.36C61.4552 30.7067 61.1986 30.1817 60.8719 29.785C60.5452 29.365 60.1719 29.0617 59.7519 28.875C59.3319 28.6883 58.9002 28.595 58.4569 28.595C58.0136 28.595 57.5819 28.6767 57.1619 28.84C56.7652 29.0033 56.4036 29.2833 56.0769 29.68C55.7736 30.0767 55.5286 30.6017 55.3419 31.255C55.1552 31.885 55.0619 32.69 55.0619 33.67C55.0619 35.3733 55.4119 36.6217 56.1119 37.415C56.8119 38.2083 57.6169 38.605 58.5269 38.605C58.9702 38.605 59.3902 38.5233 59.7869 38.36C60.2069 38.1733 60.5686 37.8933 60.8719 37.52C61.1986 37.1233 61.4552 36.61 61.6419 35.98C61.8286 35.35 61.9219 34.58 61.9219 33.67ZM80.8361 28.91H76.5311V36.015C76.5311 36.785 76.6945 37.3217 77.0211 37.625C77.3711 37.9283 77.8495 38.08 78.4561 38.08C78.9228 38.08 79.3895 38.0333 79.8561 37.94C80.3228 37.8467 80.6845 37.7183 80.9411 37.555L81.7111 41.09C81.3145 41.3 80.7078 41.51 79.8911 41.72C79.0978 41.9067 78.2461 42 77.3361 42C75.1661 42 73.6261 41.58 72.7161 40.74C71.8295 39.9 71.3861 38.6283 71.3861 36.925V28.91H68.7611V25.2H71.3861V20.09H76.5311V25.2H80.8361V28.91ZM84.3955 42V25.2H89.5755V42H84.3955ZM86.9855 21.91C86.0988 21.91 85.4221 21.665 84.9555 21.175C84.4888 20.6617 84.2555 20.055 84.2555 19.355C84.2555 18.655 84.4888 18.06 84.9555 17.57C85.4455 17.0567 86.1221 16.8 86.9855 16.8C87.8488 16.8 88.5138 17.045 88.9805 17.535C89.4705 18.025 89.7155 18.6317 89.7155 19.355C89.7155 20.0783 89.4821 20.685 89.0155 21.175C88.5488 21.665 87.8721 21.91 86.9855 21.91ZM94.3051 19.95H102.285C103.615 19.95 104.817 20.1017 105.89 20.405C106.963 20.7083 107.873 21.1517 108.62 21.735C109.39 22.3183 109.973 23.03 110.37 23.87C110.79 24.6867 111 25.6317 111 26.705C111 27.9883 110.755 29.0967 110.265 30.03C109.775 30.9633 109.11 31.745 108.27 32.375C107.453 32.9817 106.485 33.4367 105.365 33.74C104.268 34.02 103.102 34.16 101.865 34.16H99.6251V42H94.3051V19.95ZM99.6251 30.135H101.55C102.063 30.135 102.565 30.0767 103.055 29.96C103.545 29.8433 103.965 29.6683 104.315 29.435C104.688 29.1783 104.98 28.8517 105.19 28.455C105.423 28.0583 105.54 27.5683 105.54 26.985C105.54 25.9817 105.19 25.2233 104.49 24.71C103.813 24.1967 102.903 23.94 101.76 23.94H99.6251V30.135ZM129.244 35.105H118.394V35.245C118.394 36.4117 118.849 37.2633 119.759 37.8C120.669 38.3367 121.812 38.605 123.189 38.605C124.145 38.605 124.985 38.5117 125.709 38.325C126.432 38.1383 127.039 37.9167 127.529 37.66L128.474 41.23C127.844 41.5333 127.039 41.8017 126.059 42.035C125.102 42.2683 123.924 42.385 122.524 42.385C121.264 42.385 120.062 42.2217 118.919 41.895C117.799 41.545 116.807 41.02 115.944 40.32C115.104 39.62 114.427 38.7333 113.914 37.66C113.424 36.5867 113.179 35.3033 113.179 33.81C113.179 32.48 113.377 31.2667 113.774 30.17C114.194 29.05 114.777 28.0933 115.524 27.3C116.27 26.5067 117.157 25.9 118.184 25.48C119.234 25.0367 120.389 24.815 121.649 24.815C123.959 24.815 125.802 25.515 127.179 26.915C128.555 28.315 129.244 30.31 129.244 32.9V35.105ZM123.959 31.57C123.959 31.1733 123.912 30.7883 123.819 30.415C123.725 30.0417 123.574 29.715 123.364 29.435C123.177 29.1317 122.92 28.8983 122.594 28.735C122.29 28.5483 121.917 28.455 121.474 28.455C120.657 28.455 119.98 28.7467 119.444 29.33C118.907 29.89 118.592 30.66 118.499 31.64L123.959 31.57ZM142.838 28.91H138.533V36.015C138.533 36.785 138.696 37.3217 139.023 37.625C139.373 37.9283 139.851 38.08 140.458 38.08C140.925 38.08 141.391 38.0333 141.858 37.94C142.325 37.8467 142.686 37.7183 142.943 37.555L143.713 41.09C143.316 41.3 142.71 41.51 141.893 41.72C141.1 41.9067 140.248 42 139.338 42C137.168 42 135.628 41.58 134.718 40.74C133.831 39.9 133.388 38.6283 133.388 36.925V28.91H130.763V25.2H133.388V20.09H138.533V25.2H142.838V28.91Z" fill="#FA8548"/>
<path d="M152.937 4.41214C153.257 3.47512 154.088 1.23217 154.911 1.24803C155.657 1.26241 156.396 3.45125 156.741 4.24977L156.802 4.41316L157.626 6.82308C157.815 7.37577 158.12 7.88152 158.521 8.30624C158.922 8.73095 159.409 9.06474 159.95 9.28509L160.172 9.3678L162.582 10.1909C163.573 10.5294 165.813 11.4392 165.739 12.3062C165.679 13.0029 163.493 13.6721 162.745 13.9947L162.582 14.0559L160.172 14.88C159.619 15.0687 159.113 15.3739 158.688 15.7748C158.263 16.1757 157.929 16.6632 157.709 17.2042L157.626 17.4247L156.803 19.8357C156.493 20.7417 155.706 22.9846 154.911 22.9999C154.138 23.0148 153.357 20.8262 153 19.9991L152.937 19.8357L152.114 17.4257C151.925 16.8729 151.62 16.3669 151.219 15.942C150.818 15.5171 150.331 15.1832 149.79 14.9627L149.569 14.88L147.159 14.057C146.307 13.7657 144.066 13.0518 144.002 12.3062C143.931 11.4883 146.118 10.6323 146.996 10.2542L147.159 10.1909L149.569 9.3678C150.122 9.17895 150.628 8.87376 151.052 8.47283C151.477 8.0719 151.811 7.58455 152.031 7.04365L152.114 6.82308L152.937 4.41214ZM163.039 4.31045e-08C163.487 -9.53562e-07 163.84 1.17879 164.005 1.58251L164.363 2.63022L165.411 2.98762C165.794 3.11771 166.967 3.48576 166.993 3.88933C167.019 4.29289 165.895 4.69385 165.532 4.87166L165.411 4.92067L164.364 5.27808L164.006 6.3268C163.876 6.70959 163.508 7.88242 163.104 7.90801C162.633 7.93786 162.245 6.74568 162.073 6.3268L161.716 5.2791L160.667 4.92169C160.284 4.79161 159.111 4.42356 159.085 4.01999C159.06 3.61642 160.183 3.21546 160.547 3.03766L160.667 2.98864L161.715 2.63124L162.072 1.58251C162.212 1.17347 162.607 -0.000259703 163.039 4.31045e-08Z" fill="#FA8548"/>
</svg>
